<svg width="314" height="45" viewBox="0 0 314 45" fill="none" xmlns="http://www.w3.org/2000/svg">
<path d="M0.000488281 8C0.000488281 3.58172 3.58221 0 8.00049 0H220.482C229.787 0 230.882 13.5371 221.699 15.0328C213.233 16.4116 213.233 28.5884 221.699 29.9672C230.882 31.4629 229.787 45 220.482 45H8.00049C3.58221 45 0.000488281 41.4183 0.000488281 37V8Z" fill="#9E92E7"/>
<path d="M263.278 12.3777C256.203 10.4219 257.617 0 264.958 0L306 0C310.419 0 314 3.58172 314 8V22V37C314 41.4183 310.419 45 306 45H255.379C246.778 45 244.236 33.2829 252.064 29.7191L264.211 24.1888C269.57 21.749 268.954 13.9464 263.278 12.3777Z" fill="#9E92E7"/>
</svg>
